<svg width="400" height="400" viewBox="0 0 400 400" fill="none" xmlns="http://www.w3.org/2000/svg">
<g clip-path="url(#clip0_354_0)">
<path d="M200.001 399.998C89.544 399.998 0.00119019 310.455 0.00119019 199.999C0.00119019 89.5425 89.544 0 200.001 0C310.457 0 400 89.5425 400 199.999C400 310.455 310.457 399.998 200.001 399.998Z" fill="#121D3F"/>
<path d="M199.96 381.721C99.6206 381.721 18.2795 300.379 18.2795 200.04C18.2795 99.7005 99.6206 18.3594 199.96 18.3594C300.299 18.3594 381.641 99.7005 381.641 200.04C381.641 300.379 300.299 381.721 199.96 381.721Z" fill="#84B4E1"/>
<path d="M199.967 371.55C105.24 371.55 28.4491 294.759 28.4491 200.033C28.4491 105.306 105.24 28.5156 199.967 28.5156C294.693 28.5156 371.484 105.306 371.484 200.033C371.484 294.759 294.693 371.55 199.967 371.55Z" fill="#121D3F"/>
<path d="M127.148 115.43H218.307C235 115.43 247.815 119.564 256.752 127.831C265.69 136.099 270.158 146.336 270.158 158.54C270.158 168.777 266.969 177.556 260.591 184.879C257.796 188.088 253.151 191.854 248.656 194.179C254.776 196.163 263.524 200.954 269.39 208.237C275.256 215.521 278.19 228.305 278.19 239.329C278.19 248.305 276.103 256.376 271.93 263.541C267.756 270.707 262.048 276.376 254.803 280.55C250.315 283.148 243.544 285.038 234.488 286.219C222.441 287.794 214.448 288.581 210.511 288.581H127.148V115.43ZM172.125 183.344H203.294C211.641 183.344 217.448 181.907 220.715 179.033C223.983 176.159 225.617 172.005 225.617 166.572C225.617 161.533 223.983 157.596 220.715 154.761C217.448 151.926 211.758 150.509 203.648 150.509H172.125V183.344ZM172.125 251.376H207.409C216.622 251.376 223.118 249.742 226.897 246.474C230.368 243.474 232.597 237.605 232.607 232.853C232.616 228.101 230.697 221.073 226.957 217.963C223.216 214.852 216.661 213.297 207.291 213.297H172.125V251.376Z" fill="white"/>
<path d="M384.622 366.802C389.386 366.993 393.989 369.263 396.918 373.151C396.918 373.151 403.745 384.701 396.921 393.654C392.439 399.535 383.822 401.627 377.2 398.379C370.925 395.3 366.898 387.828 368.371 380.075C368.371 380.075 368.906 377.759 369.626 376.211C372.168 370.751 377.759 367.043 383.788 366.802C384.207 366.795 384.205 366.795 384.622 366.802ZM383.888 370.538C378.414 370.757 373.492 374.765 372.062 380.204C371.655 381.756 372.239 387.238 372.239 387.238C374.614 394.373 383.162 398.182 389.643 395.006C399.158 390.343 399.769 370.282 383.888 370.538Z" fill="#121D3F"/>
<path d="M378.418 390.261H381.476V384.68H384.533C386.071 384.68 386.636 385.34 386.85 386.84C387.006 387.98 386.967 389.361 387.337 390.261H390.394C389.849 389.461 389.869 387.78 389.81 386.88C389.713 385.44 389.284 383.939 387.784 383.539V383.499C389.323 382.859 389.985 381.598 389.985 379.918C389.985 377.757 388.408 375.977 385.915 375.977H378.418V390.261ZM381.476 378.418H384.825C386.188 378.418 386.928 379.018 386.928 380.398C386.928 381.838 386.188 382.439 384.825 382.439H381.476V378.418Z" fill="#121D3F"/>
</g>
<defs>
<clipPath id="clip0_354_0">
<rect width="400" height="400" fill="white"/>
</clipPath>
</defs>
</svg>
