<?xml version="1.0" encoding="UTF-8"?><svg id="a" xmlns="http://www.w3.org/2000/svg" viewBox="0 0 313 60"><path d="M81.2,17.3h8.3c3.3,0,6.3,1.5,6.3,5.7s-2.5,6-6.3,6h-3.8v5.8h-4.6l.1-17.5ZM85.7,25.5h3.1c1.4,0,2.5-.6,2.5-2.2.06-1.22-.88-2.26-2.1-2.32-.13,0-.27,0-.4.02h-3.1v4.5Z" style="fill:#011e41;"/><path d="M112,27.6c0,5.1-2.3,7.6-7.6,7.6s-7.6-2.5-7.6-7.6v-10.3h4.6v10.6c0,2.3.8,3.4,3.1,3.4s3.1-1.2,3.1-3.4v-10.6h4.6v10.3h-.2Z" style="fill:#011e41;"/><path d="M113.9,17.3h8.9c3.1,0,6.1,1.4,6.1,4.9.11,1.92-1.02,3.69-2.8,4.4h0c1.9.4,2.4,2.5,2.6,4.2,0,.7.1,3.3.7,4h-4.4c-.35-.89-.52-1.84-.5-2.8-.1-1.8-.4-3.6-2.6-3.6h-3.5v6.4h-4.6l.1-17.5ZM118.5,24.9h3.8c1.02.14,1.96-.57,2.1-1.58.02-.17.02-.34,0-.52,0-1.3-1-1.9-2.3-1.9h-3.6v4Z" style="fill:#011e41;"/><path d="M130.5,17.3h14v3.7h-9.4v3.1h8.6v3.5h-8.6v3.3h9.7v3.9h-14.2v-17.5h-.1Z" style="fill:#011e41;"/><path d="M152.7,17.3h4.6v13.6h8.2v3.9h-12.8v-17.5Z" style="fill:#011e41;"/><path d="M174.6,17c5.5,0,8.7,4.1,8.7,9.1s-3.1,9.1-8.7,9.1-8.7-4.1-8.7-9.1,3.2-9.1,8.7-9.1ZM174.6,31.3c2.9,0,4.1-2.6,4.1-5.2s-1.1-5.2-4.1-5.2-4.1,2.6-4.1,5.2,1.1,5.2,4.1,5.2Z" style="fill:#011e41;"/><path d="M193.5,28.3v6.5h-4.6v-6.5l-6.4-11h5.2l3.5,7.1,3.5-7.1h5.2l-6.4,11Z" style="fill:#011e41;"/><path d="M202.8,17.3h4.6l6.6,17.5h-4.8l-1.1-3.1h-6.1l-1.1,3.1h-4.7l6.6-17.5ZM203,28.3h4l-1.9-6.1h-.1l-2,6.1Z" style="fill:#011e41;"/><path d="M214.1,17.3h4.6v13.6h8.2v3.9h-12.8v-17.5Z" style="fill:#011e41;"/><path d="M238.7,21.3h-5.2v13.6h-4.6v-13.6h-5.2v-3.9h15v3.9Z" style="fill:#011e41;"/><path d="M248.5,28.3v6.5h-4.6v-6.5l-6.4-11h5.2l3.5,7.1,3.5-7.1h5.2l-6.4,11Z" style="fill:#011e41;"/><path d="M8.1,17.4h10.1c1.42-.11,2.83.36,3.9,1.3.89.78,1.4,1.91,1.4,3.1.02.99-.34,1.96-1,2.7-.52.56-1.17.97-1.9,1.2,1.1.17,2.09.74,2.8,1.6.62.8.94,1.79.9,2.8.02.84-.19,1.67-.6,2.4-.41.71-.99,1.29-1.7,1.7-.64.36-1.36.56-2.1.6-.79.14-1.6.2-2.4.2h-9.4v-17.6ZM13.6,24.2h2.4c.63.07,1.26-.07,1.8-.4.34-.34.52-.82.5-1.3,0-.45-.18-.88-.5-1.2-.5-.33-1.1-.48-1.7-.4h-2.4v3.3h-.1ZM13.6,31.1h2.8c.7.04,1.4-.13,2-.5.39-.32.61-.8.6-1.3.01-.47-.21-.92-.6-1.2-.59-.38-1.3-.56-2-.5h-2.8v3.5Z" style="fill:#011e41;"/><path d="M24.7,17.4h5.4v13.2h8.4v4.3h-13.8v-17.5Z" style="fill:#8ab7e9;"/><path d="M49.9,17.4h5.4v10.4c-.01.99-.18,1.97-.5,2.9-.3.91-.82,1.73-1.5,2.4-.62.65-1.37,1.17-2.2,1.5-1.22.43-2.51.63-3.8.6-.9,0-1.8-.1-2.8-.2-.87-.1-1.71-.34-2.5-.7-.7-.41-1.34-.92-1.9-1.5-.51-.6-.91-1.27-1.2-2-.3-.97-.46-1.98-.5-3v-10.4h5.4v10.7c-.04.81.25,1.61.8,2.2,1.27,1.06,3.13,1.06,4.4,0,.56-.63.85-1.46.8-2.3,0,0,.1-10.6.1-10.6Z" style="fill:#8ab7e9;"/><path d="M62,27.4c.2,1.9,1.3,3.3,3.3,3.3,1.04.07,2.05-.38,2.7-1.2h6.1c-1.3,3.7-4.9,5.4-8.8,5.4-5.5,0-9.6-3.2-9.6-8.9-.14-4.83,3.66-8.86,8.49-9,.2,0,.41,0,.61,0,6.8,0,9.8,3.8,9.8,10.4h-12.6ZM68.3,24c.03-1.57-1.21-2.87-2.78-2.9-.04,0-.08,0-.12,0-1.7-.17-3.21,1.06-3.39,2.76,0,.05,0,.09-.01.14h6.3Z" style="fill:#8ab7e9;"/><path d="M134.5,48.7h-1.1l1.7-8.3h-2.6l.2-1h6.2l-.2,1h-2.6l-1.6,8.3Z" style="fill:#a7a8a9;"/><path d="M142.5,48.7l.9-4.4c.07-.29.11-.6.1-.9.06-.44-.25-.84-.69-.9-.07,0-.14,0-.21,0-.4,0-.79.14-1.1.4-.42.24-.74.64-.9,1.1-.32.52-.52,1.1-.6,1.7l-.6,3h-1.1l2.1-9.8h1.1c-.1.3-.1.7-.2,1s-.1.7-.2,1c-.11.32-.18.66-.2,1l-.3,1.2h.1c.32-.45.73-.82,1.2-1.1.37-.19.78-.3,1.2-.3.94-.05,1.75.67,1.8,1.61,0,.06,0,.12,0,.19.01.34-.02.67-.1,1-.2.8-.5,2.2-.9,4.2h-1.4Z" style="fill:#a7a8a9;"/><path d="M148.4,48.8c-.68.07-1.35-.19-1.8-.7-.45-.53-.7-1.2-.7-1.9.02-.79.19-1.57.5-2.3.26-.66.67-1.24,1.2-1.7.48-.39,1.08-.6,1.7-.6.53-.04,1.06.1,1.5.4.32.32.5.75.5,1.2.02.74-.36,1.43-1,1.8-.93.45-1.97.66-3,.6h-.2v.5c-.05.47.09.94.4,1.3.32.32.75.5,1.2.5.27.02.54-.02.8-.1.34-.11.68-.24,1-.4v.9c-.32.16-.66.29-1,.4-.36.08-.73.12-1.1.1ZM149.3,42.6c-.46.03-.9.25-1.2.6-.44.44-.75,1-.9,1.6h.1c.76.06,1.51-.08,2.2-.4.47-.16.8-.6.8-1.1-.02-.21-.09-.42-.2-.6-.26-.09-.53-.12-.8-.1h0Z" style="fill:#a7a8a9;"/><path d="M158.5,48.8c-.39,0-.77-.1-1.1-.3-.31-.23-.55-.54-.7-.9h-.1v.2c.01.14-.02.28-.1.4,0,.2-.3,1.4-.7,3.5h-1l2.1-10h.9l-.2,1.3h.1c.5-.81,1.35-1.33,2.3-1.4.53-.01,1.04.2,1.4.6.34.5.52,1.09.5,1.7.02.85-.11,1.7-.4,2.5-.26.66-.67,1.24-1.2,1.7-.5.44-1.13.69-1.8.7ZM159.7,42.5c-.46.03-.9.25-1.2.6-.44.42-.79.93-1,1.5-.24.61-.37,1.25-.4,1.9-.02.39.08.78.3,1.1.27.25.63.39,1,.4.44-.03.86-.21,1.2-.5.42-.42.73-.93.9-1.5.2-.65.31-1.32.3-2,0-1-.4-1.5-1.1-1.5Z" style="fill:#a7a8a9;"/><path d="M166.6,41.7c.7-.05,1.39.21,1.9.7.51.54.76,1.26.7,2-.01.76-.18,1.51-.5,2.2-.26.63-.67,1.18-1.2,1.6-.51.4-1.15.62-1.8.6-1.33.1-2.5-.89-2.6-2.23,0-.12,0-.25,0-.37.01-.79.18-1.57.5-2.3.26-.63.67-1.18,1.2-1.6.51-.4,1.15-.62,1.8-.6ZM168,44.2c.04-.44-.11-.87-.4-1.2-.27-.32-.68-.5-1.1-.5-.45,0-.88.18-1.2.5-.4.34-.68.79-.8,1.3-.2.58-.3,1.19-.3,1.8-.05.47.09.94.4,1.3.32.32.75.5,1.2.5.44-.03.86-.21,1.2-.5.37-.36.64-.81.8-1.3.13-.63.19-1.26.2-1.9Z" style="fill:#a7a8a9;"/><path d="M175,48.7l-.2-3.8v-2.1h-.1l-.3.7-.5,1.2-1.8,3.9h-1.3l-.3-6.9h1l.1,3.7v.6c.02.57-.01,1.14-.1,1.7h0c.2-.5.5-1.2.9-2l1.9-4h1.1l.2,3.7v2.3h0c.1-.4.3-.8.5-1.4s.9-2.1,2-4.6h1.1l-3.2,6.9s-1,.1-1,.1Z" style="fill:#a7a8a9;"/><path d="M182.1,48.8c-.68.07-1.35-.19-1.8-.7-.45-.53-.7-1.2-.7-1.9.02-.79.19-1.57.5-2.3.26-.66.67-1.24,1.2-1.7.48-.39,1.08-.6,1.7-.6.53-.04,1.06.1,1.5.4.32.32.5.75.5,1.2.02.74-.36,1.43-1,1.8-.93.45-1.97.66-3,.6h-.2v.5c-.05.47.09.94.4,1.3.32.32.75.5,1.2.5.27.02.54-.02.8-.1.34-.11.68-.24,1-.4v.9c-.32.16-.66.29-1,.4-.36.08-.73.12-1.1.1ZM183,42.6c-.46.03-.9.25-1.2.6-.44.44-.75,1-.9,1.6h.1c.76.06,1.51-.08,2.2-.4.47-.16.8-.6.8-1.1-.02-.21-.09-.42-.2-.6-.26-.08-.53-.12-.8-.1Z" style="fill:#a7a8a9;"/><path d="M190.1,41.7c.27-.02.54.02.8.1l-.2.9c-.22-.09-.46-.12-.7-.1-.4,0-.79.14-1.1.4-.32.31-.63.64-.9,1-.28.47-.48.97-.6,1.5l-.7,3.2h-1.1l1.5-6.9h.9l-.1,1.3h.1c.3-.4.6-.7.7-.9.18-.17.38-.3.6-.4.26-.08.53-.12.8-.1Z" style="fill:#a7a8a9;"/><path d="M197.9,41.7c.7-.05,1.39.21,1.9.7.51.54.76,1.26.7,2-.01.76-.18,1.51-.5,2.2-.26.63-.67,1.18-1.2,1.6-.51.4-1.15.62-1.8.6-1.33.1-2.5-.89-2.6-2.23,0-.12,0-.25,0-.37.01-.79.18-1.57.5-2.3.26-.63.67-1.18,1.2-1.6.52-.39,1.15-.6,1.8-.6ZM199.4,44.2c.04-.44-.11-.87-.4-1.2-.27-.32-.68-.5-1.1-.5-.45,0-.88.18-1.2.5-.4.34-.68.79-.8,1.3-.2.58-.3,1.19-.3,1.8-.05.47.09.94.4,1.3.32.32.75.5,1.2.5.44-.03.86-.21,1.2-.5.37-.36.64-.81.8-1.3.13-.63.19-1.26.2-1.9Z" style="fill:#a7a8a9;"/><path d="M200.4,51.8c-.27.02-.54-.01-.8-.1v-.9c.23.07.46.11.7.1.3.04.58-.13.7-.4.21-.33.35-.71.4-1.1l1.4-6.8h-1.2l.1-.4,1.3-.4.1-.6c.15-.65.42-1.26.8-1.8.42-.34.96-.52,1.5-.5.21-.02.41.02.6.1.21.02.42.09.6.2l-.3.8c-.29-.11-.59-.18-.9-.2-.3-.02-.59.09-.8.3-.26.31-.44.69-.5,1.1l-.2.7h1.5l-.2.8h-1.2l-1.5,6.9c-.08.64-.36,1.23-.8,1.7-.34.34-.82.52-1.3.5Z" style="fill:#a7a8a9;"/><path d="M209,48.7l1.9-9.2h1.1l-1.7,8.2h3.6l-.2,1h-4.7Z" style="fill:#a7a8a9;"/><path d="M218.6,41.7c.7-.05,1.39.21,1.9.7.51.54.76,1.26.7,2-.01.76-.18,1.51-.5,2.2-.26.63-.67,1.18-1.2,1.6-.51.4-1.15.62-1.8.6-1.33.1-2.5-.89-2.6-2.23,0-.12,0-.25,0-.37.01-.79.18-1.57.5-2.3.26-.63.67-1.18,1.2-1.6.53-.38,1.15-.58,1.8-.6ZM220.1,44.2c.04-.44-.11-.87-.4-1.2-.27-.32-.68-.5-1.1-.5-.45,0-.88.18-1.2.5-.4.34-.68.79-.8,1.3-.2.58-.3,1.19-.3,1.8-.05.47.09.94.4,1.3.32.32.75.5,1.2.5.44-.03.86-.21,1.2-.5.37-.36.64-.81.8-1.3.13-.63.19-1.26.2-1.9Z" style="fill:#a7a8a9;"/><path d="M222.4,41.8h1.1l.5,3.4c0,.3.1.7.1,1.3s.1,1,.1,1.4h0c.14-.44.31-.88.5-1.3.15-.34.31-.68.5-1l2-3.8h1.1l-4.4,8.1c-.3.57-.7,1.08-1.2,1.5-.4.29-.9.44-1.4.4-.3.02-.61-.02-.9-.1v-.9c.26.08.53.12.8.1.32,0,.64-.11.9-.3.28-.26.52-.56.7-.9l.5-.9-.9-7Z" style="fill:#a7a8a9;"/><path d="M231.8,41.7c.36,0,.71.1,1,.3.31.23.55.54.7.9h.1l.4-1.1h.8l-1.5,6.9h-.8l.2-1.3h-.1c-.52.83-1.42,1.35-2.4,1.4-.53.01-1.04-.2-1.4-.6-.34-.5-.52-1.09-.5-1.7-.03-.82.11-1.64.4-2.4.28-.67.69-1.28,1.2-1.8.57-.36,1.22-.57,1.9-.6ZM230.6,47.9c.46-.03.9-.25,1.2-.6.41-.44.75-.95,1-1.5.29-.59.42-1.24.4-1.9.04-.38-.11-.75-.4-1-.21-.28-.55-.43-.9-.4-.44.03-.86.21-1.2.5-.41.42-.72.94-.9,1.5-.2.65-.31,1.32-.3,2-.02.39.08.78.3,1.1.22.2.5.31.8.3Z" style="fill:#a7a8a9;"/><path d="M236.5,48.7h-1.1l2.1-9.8h1.1l-2.1,9.8Z" style="fill:#a7a8a9;"/><path d="M240.9,48c.31-.04.61-.11.9-.2v.8c-.1.1-.3.1-.5.2-.17.02-.34.06-.5.1-.44.04-.87-.11-1.2-.4-.31-.28-.46-.69-.4-1.1-.02-.3.02-.61.1-.9l.8-3.8h-1.1l.1-.5,1.2-.5.8-1.4h.6l-.3,1.6h1.7l-.2.8h-1.7l-.8,3.8c-.07.26-.11.53-.1.8,0,.19.07.36.2.5,0,.1.1.2.4.2Z" style="fill:#a7a8a9;"/><path d="M243.2,41.8h1.1l.5,3.4c0,.3.1.7.1,1.3s.1,1,.1,1.4h0c.14-.44.31-.88.5-1.3.15-.34.31-.68.5-1l2-3.8h1.1l-4.4,8.1c-.3.57-.7,1.08-1.2,1.5-.4.29-.9.44-1.4.4-.3.02-.61-.02-.9-.1v-.9c.26.08.53.12.8.1.32,0,.64-.11.9-.3.28-.26.52-.56.7-.9l.5-.9-.9-7Z" style="fill:#a7a8a9;"/><path d="M285.7,5.2c-11.43,0-20.7,9.27-20.7,20.7s9.27,20.7,20.7,20.7c11.43,0,20.7-9.27,20.7-20.7-.02-11.42-9.28-20.68-20.7-20.7M285.7,44.9c-10.49,0-19-8.51-19-19s8.51-19,19-19,19,8.51,19,19-8.51,19-19,19" style="fill:#011e41;"/><path d="M285.7,6.8c-10.49,0-19,8.51-19,19s8.51,19,19,19,19-8.51,19-19h0c0-10.49-8.51-19-19-19M285.7,43.9c-9.94,0-18-8.06-18-18s8.06-18,18-18,18,8.06,18,18c-.03,9.93-8.07,17.97-18,18" style="fill:#8ab7e9;"/><path d="M285.7,7.9c-9.94,0-18,8.06-18,18s8.06,18,18,18,18-8.06,18-18h0c-.03-9.93-8.07-17.97-18-18" style="fill:#011e41;"/><path d="M282.8,31.4h3.8c1.5,0,2.5-.5,2.5-2s-1.1-2.1-2.5-2.1h-3.8v4.1ZM282.8,24.2h3.7c.97.1,1.83-.6,1.94-1.56.1-.97-.6-1.83-1.56-1.94-.12-.01-.25-.01-.37,0h-3.7v3.5ZM278,17.1h8.5c3.1,0,6.6.8,6.6,4.5-.06,1.58-.98,3-2.4,3.7,1.89.56,3.17,2.33,3.1,4.3,0,4.3-3.2,5.6-7.1,5.6h-8.7v-18.1Z" style="fill:#fff;"/><path d="M262.14,19.66c.04,1.56-1.2,2.86-2.76,2.9-1.56.04-2.86-1.2-2.9-2.76-.04-1.56,1.2-2.86,2.76-2.9.05,0,.09,0,.14,0,1.52,0,2.76,1.24,2.76,2.76ZM257.18,19.66c-.03,1.19.91,2.18,2.1,2.21.02,0,.04,0,.06,0,1.17.02,2.14-.91,2.17-2.08,0-.04,0-.07,0-.11,0-1.17-.95-2.13-2.13-2.13s-2.13.95-2.13,2.13h-.07ZM258.88,21.04h-.63v-2.76c.35-.05.71-.08,1.06-.08.33-.04.66.04.94.22.19.14.29.36.28.59-.02.32-.25.59-.57.65h0c.28.08.4.3.48.68.04.23.11.46.21.68h-.68c-.1-.21-.17-.44-.21-.68,0-.29-.22-.41-.58-.41h-.3v1.12ZM258.88,19.49h.32c.35,0,.63-.12.63-.41s-.19-.41-.59-.41c-.12-.02-.24-.02-.36,0v.83Z" style="fill:#0a1e3f;"/><path d="M254.53,43.36c.03,1.12-.85,2.06-1.98,2.09-1.12.03-2.06-.85-2.09-1.98-.03-1.12.85-2.06,1.98-2.09.02,0,.05,0,.07,0,1.1-.02,2.01.86,2.02,1.96,0,0,0,0,0,.01ZM250.96,43.36c-.02.85.65,1.56,1.5,1.59.01,0,.03,0,.04,0,.8,0,1.46-.65,1.46-1.45,0-.04,0-.08,0-.12,0-.84-.68-1.53-1.53-1.53s-1.53.68-1.53,1.53h.06ZM252.19,44.38h-.45v-1.98c.25-.02.5-.02.76,0,.23-.02.47.03.67.16.14.1.21.26.2.42,0,.23-.18.43-.41.48h0c.2,0,.29.22.35.48.02.17.07.33.15.48h-.48c-.07-.18-.11-.37-.1-.57,0-.2-.15-.29-.41-.29h-.22l-.06.81ZM252.19,43.27h.22c.25,0,.45-.09.45-.29s-.13-.29-.42-.29h-.25v.58Z" style="fill:#a7a8a9;"/><path d="M308.37,41c.04,1.39-1.06,2.55-2.46,2.59s-2.55-1.06-2.59-2.46c-.04-1.39,1.06-2.55,2.46-2.59.03,0,.06,0,.1,0,1.36-.02,2.48,1.08,2.5,2.44,0,0,0,0,0,.01ZM303.95,41c-.02,1.06.82,1.94,1.88,1.96.01,0,.03,0,.04,0,1.04,0,1.88-.86,1.88-1.9,0-.01,0-.03,0-.04.09-1.05-.69-1.97-1.74-2.06s-1.97.69-2.06,1.74c0,.11,0,.22,0,.32h0ZM305.47,42.27h-.58v-2.46c.31-.04.62-.07.94-.07.29-.03.59.03.84.19.17.12.27.32.26.52-.01.29-.23.53-.51.58h0c.23.08.36.28.43.61.04.2.1.4.18.59h-.59c-.1-.18-.16-.39-.19-.59,0-.25-.19-.37-.51-.37h-.26v.99ZM305.47,40.89h.28c.32,0,.57-.11.57-.37s-.17-.4-.51-.4c-.1-.02-.21-.02-.32,0v.77Z" style="fill:#0a1e3f;"/></svg>